<svg width="556" height="396" viewBox="0 0 556 396" fill="none" xmlns="http://www.w3.org/2000/svg">
<g clip-path="url(#clip0_6562_7993)">
<g opacity="0.8" filter="url(#filter0_d_6562_7993)">
<g clip-path="url(#clip1_6562_7993)">
<rect x="136" y="26" width="429" height="275" rx="11.3659" fill="white"/>
<line x1="136" y1="63.75" x2="585" y2="63.75" stroke="#EAEEF1" stroke-width="0.5"/>
<rect x="135.809" y="63.7236" width="99" height="133" fill="#F6FAFE"/>
<rect x="148.059" y="113.974" width="76.5" height="33.5" rx="2.75" fill="white" stroke="#EAEEF1" stroke-width="0.5"/>
<rect x="148.059" y="151.974" width="76.5" height="33.5" rx="2.75" fill="white" stroke="#EAEEF1" stroke-width="0.5"/>
<rect x="267" y="114" width="280" height="169" rx="4" fill="#F6FAFE"/>
<rect x="418" y="143" width="117" height="6" rx="3" fill="#DEE4E7" fill-opacity="0.6"/>
<rect x="418" y="155" width="117" height="6" rx="3" fill="#DEE4E7" fill-opacity="0.6"/>
<rect x="418" y="167" width="32" height="6" rx="3" fill="#DEE4E7" fill-opacity="0.6"/>
<rect x="418" y="179" width="117" height="6" rx="3" fill="#DEE4E7" fill-opacity="0.6"/>
<rect x="418" y="191" width="117" height="6" rx="3" fill="#DEE4E7" fill-opacity="0.6"/>
<rect x="418" y="203" width="117" height="6" rx="3" fill="#DEE4E7" fill-opacity="0.6"/>
<rect x="300" y="253" width="32" height="6" rx="3" fill="#DEE4E7" fill-opacity="0.6"/>
<rect x="343" y="253" width="32" height="6" rx="3" fill="#DEE4E7" fill-opacity="0.6"/>
<rect x="386" y="253" width="32" height="6" rx="3" fill="#DEE4E7" fill-opacity="0.6"/>
<rect x="429" y="253" width="32" height="6" rx="3" fill="#DEE4E7" fill-opacity="0.6"/>
<path d="M397.868 175.501C397.868 188.328 392.772 200.631 383.701 209.701C374.631 218.772 362.329 223.868 349.501 223.868C336.673 223.868 324.371 218.772 315.3 209.701C306.23 200.631 301.134 188.328 301.134 175.501L313.422 175.501C313.422 185.069 317.223 194.246 323.989 201.012C330.755 207.778 339.932 211.579 349.501 211.579C359.07 211.579 368.246 207.778 375.012 201.012C381.779 194.246 385.58 185.069 385.58 175.501H397.868Z" fill="#165BAA"/>
<path d="M349.501 223.868C342.434 223.868 335.453 222.319 329.049 219.331C322.646 216.343 316.974 211.988 312.434 206.572C307.895 201.157 304.597 194.812 302.773 187.985C300.949 181.158 300.643 174.014 301.877 167.056C303.111 160.097 305.854 153.494 309.914 147.71C313.975 141.927 319.253 137.103 325.378 133.578C331.503 130.054 338.326 127.915 345.367 127.311C352.408 126.707 359.495 127.653 366.131 130.083L361.888 141.67C356.945 139.86 351.666 139.155 346.422 139.605C341.177 140.055 336.095 141.649 331.533 144.274C326.97 146.899 323.039 150.492 320.014 154.801C316.99 159.109 314.946 164.027 314.027 169.21C313.108 174.393 313.336 179.714 314.695 184.8C316.053 189.885 318.51 194.611 321.891 198.645C325.273 202.679 329.497 205.923 334.267 208.148C339.037 210.374 344.237 211.528 349.501 211.528L349.501 223.868Z" fill="#7CBCF4"/>
<path d="M301.129 175.5C301.129 162.672 306.225 150.37 315.296 141.299C324.366 132.229 336.669 127.133 349.496 127.133C362.324 127.133 374.626 132.229 383.697 141.299C392.767 150.37 397.863 162.672 397.863 175.5L385.32 175.5C385.32 165.999 381.546 156.887 374.828 150.168C368.109 143.45 358.997 139.676 349.496 139.676C339.995 139.676 330.883 143.45 324.165 150.168C317.446 156.887 313.672 165.999 313.672 175.5L301.129 175.5Z" fill="#7CBCF4"/>
<path d="M313.341 177.84C312.805 169.556 315.13 161.338 319.926 154.562C324.723 147.787 331.702 142.863 339.694 140.616C347.686 138.369 356.207 138.934 363.832 142.218C371.457 145.501 377.724 151.303 381.584 158.653L373.264 163.022C370.405 157.578 365.764 153.28 360.116 150.849C354.468 148.417 348.157 147.998 342.237 149.662C336.318 151.327 331.149 154.973 327.596 159.992C324.043 165.011 322.321 171.097 322.718 177.233L313.341 177.84Z" fill="#A6D1F7"/>
<path d="M380.882 157.382C384.299 163.302 385.973 170.067 385.71 176.898C385.446 183.728 383.256 190.345 379.392 195.983C375.528 201.622 370.148 206.053 363.873 208.764C357.599 211.475 350.685 212.357 343.931 211.306L345.375 202.021C350.378 202.799 355.498 202.146 360.146 200.138C364.794 198.13 368.778 194.848 371.64 190.671C374.502 186.495 376.124 181.594 376.319 176.535C376.515 171.476 375.275 166.465 372.744 162.08L380.882 157.382Z" fill="#BDDEF9"/>
<path d="M344.781 211.428C336.275 210.311 328.441 206.212 322.674 199.861C316.906 193.509 313.579 185.318 313.285 176.744L322.677 176.421C322.895 182.772 325.359 188.839 329.63 193.543C333.902 198.248 339.705 201.284 346.005 202.111L344.781 211.428Z" fill="#BDDEF9"/>
<path d="M299.219 80.6406C299.219 80.305 299.352 79.983 299.589 79.7457C299.827 79.5083 300.149 79.375 300.484 79.375H315.672C316.008 79.375 316.329 79.5083 316.567 79.7457C316.804 79.983 316.938 80.305 316.938 80.6406V83.1719C316.938 83.5075 316.804 83.8295 316.567 84.0668C316.329 84.3042 316.008 84.4375 315.672 84.4375C315.336 84.4375 315.014 84.3042 314.777 84.0668C314.54 83.8295 314.406 83.5075 314.406 83.1719V81.9062H309.344V97.0938H311.453C311.789 97.0938 312.111 97.2271 312.348 97.4644C312.585 97.7018 312.719 98.0237 312.719 98.3594C312.719 98.695 312.585 99.017 312.348 99.2543C312.111 99.4917 311.789 99.625 311.453 99.625H304.703C304.367 99.625 304.046 99.4917 303.808 99.2543C303.571 99.017 303.438 98.695 303.438 98.3594C303.438 98.0237 303.571 97.7018 303.808 97.4644C304.046 97.2271 304.367 97.0938 304.703 97.0938H306.812V81.9062H301.75V83.1719C301.75 83.5075 301.617 83.8295 301.379 84.0668C301.142 84.3042 300.82 84.4375 300.484 84.4375C300.149 84.4375 299.827 84.3042 299.589 84.0668C299.352 83.8295 299.219 83.5075 299.219 83.1719V80.6406Z" fill="#DEE4E7"/>
<rect x="330" y="80" width="205" height="6" rx="3" fill="#DEE4E7" fill-opacity="0.6"/>
<rect x="330" y="92" width="87" height="6" rx="3" fill="#DEE4E7" fill-opacity="0.6"/>
<path d="M164.167 35.5H147.833C146.55 35.5 145.5 36.55 145.5 37.8333V54.1667C145.5 55.45 146.55 56.5 147.833 56.5H164.167C165.45 56.5 166.5 55.45 166.5 54.1667V37.8333C166.5 36.55 165.45 35.5 164.167 35.5ZM153.083 45.4167C153.083 46.35 152.267 47.1667 151.333 47.1667H150.167V49.5H148.417V42.5H151.333C152.267 42.5 153.083 43.3167 153.083 44.25V45.4167ZM158.917 47.75C158.917 48.6833 158.1 49.5 157.167 49.5H154.25V42.5H157.167C158.1 42.5 158.917 43.3167 158.917 44.25V47.75ZM163.583 44.25H161.833V45.4167H163.583V47.1667H161.833V49.5H160.083V42.5H163.583V44.25ZM156 44.25H157.167V47.75H156V44.25ZM150.167 44.25H151.333V45.4167H150.167V44.25Z" fill="#E45C45"/>
</g>
</g>
<g filter="url(#filter1_d_6562_7993)">
<rect x="24" y="102" width="207" height="266" rx="11.3659" fill="white"/>
<line x1="24" y1="139.75" x2="231" y2="139.75" stroke="#EAEEF1" stroke-width="0.5"/>
<rect x="82" y="161" width="36" height="6" rx="3" fill="#DEE4E7" fill-opacity="0.6"/>
<rect x="82" y="173" width="36" height="6" rx="3" fill="#DEE4E7" fill-opacity="0.6"/>
<rect x="82" y="185" width="36" height="6" rx="3" fill="#DEE4E7" fill-opacity="0.6"/>
<rect x="131" y="161" width="76" height="6" rx="3" fill="#DEE4E7" fill-opacity="0.6"/>
<rect x="131" y="173" width="76" height="6" rx="3" fill="#DEE4E7" fill-opacity="0.6"/>
<rect x="131" y="185" width="32" height="6" rx="3" fill="#DEE4E7" fill-opacity="0.6"/>
<rect x="131" y="197" width="76" height="6" rx="3" fill="#DEE4E7" fill-opacity="0.6"/>
<rect x="131" y="209" width="76" height="6" rx="3" fill="#DEE4E7" fill-opacity="0.6"/>
<rect x="131" y="221" width="76" height="6" rx="3" fill="#DEE4E7" fill-opacity="0.6"/>
<rect x="42" y="197" width="76" height="6" rx="3" fill="#DEE4E7" fill-opacity="0.6"/>
<rect x="42" y="209" width="76" height="6" rx="3" fill="#DEE4E7" fill-opacity="0.6"/>
<rect x="42" y="221" width="76" height="6" rx="3" fill="#DEE4E7" fill-opacity="0.6"/>
<rect x="131" y="245" width="76" height="6" rx="3" fill="#DEE4E7" fill-opacity="0.6"/>
<rect x="131" y="257" width="76" height="6" rx="3" fill="#DEE4E7" fill-opacity="0.6"/>
<rect x="131" y="269" width="76" height="6" rx="3" fill="#DEE4E7" fill-opacity="0.6"/>
<rect x="131" y="281" width="32" height="6" rx="3" fill="#DEE4E7" fill-opacity="0.6"/>
<rect x="131" y="293" width="76" height="6" rx="3" fill="#DEE4E7" fill-opacity="0.6"/>
<rect x="131" y="305" width="76" height="6" rx="3" fill="#DEE4E7" fill-opacity="0.6"/>
<rect x="131" y="317" width="32" height="6" rx="3" fill="#DEE4E7" fill-opacity="0.6"/>
<rect x="131" y="329" width="76" height="6" rx="3" fill="#DEE4E7" fill-opacity="0.6"/>
<rect x="131" y="341" width="76" height="6" rx="3" fill="#DEE4E7" fill-opacity="0.6"/>
<rect x="42" y="242" width="78" height="108" rx="4" fill="#F6FAFE"/>
<rect x="53" y="257" width="56" height="6" rx="3" fill="#DEE4E7" fill-opacity="0.6"/>
<rect x="53" y="320" width="6" height="16" fill="#BDDEF9"/>
<rect x="63" y="310" width="6" height="26" fill="#A6D1F7"/>
<rect x="73" y="298" width="6" height="38" fill="#7CBCF4"/>
<rect x="83" y="323" width="6" height="13" fill="#165BAA"/>
<rect x="93" y="305" width="6" height="31" fill="#A6D1F7"/>
<rect x="103" y="283" width="6" height="53" fill="#165BAA"/>
<path d="M43.25 161.875C43.25 161.378 43.4475 160.901 43.7992 160.549C44.1508 160.198 44.6277 160 45.125 160H67.625C68.1223 160 68.5992 160.198 68.9508 160.549C69.3025 160.901 69.5 161.378 69.5 161.875V165.625C69.5 166.122 69.3025 166.599 68.9508 166.951C68.5992 167.302 68.1223 167.5 67.625 167.5C67.1277 167.5 66.6508 167.302 66.2992 166.951C65.9475 166.599 65.75 166.122 65.75 165.625V163.75H58.25V186.25H61.375C61.8723 186.25 62.3492 186.448 62.7008 186.799C63.0525 187.151 63.25 187.628 63.25 188.125C63.25 188.622 63.0525 189.099 62.7008 189.451C62.3492 189.802 61.8723 190 61.375 190H51.375C50.8777 190 50.4008 189.802 50.0492 189.451C49.6975 189.099 49.5 188.622 49.5 188.125C49.5 187.628 49.6975 187.151 50.0492 186.799C50.4008 186.448 50.8777 186.25 51.375 186.25H54.5V163.75H47V165.625C47 166.122 46.8025 166.599 46.4508 166.951C46.0992 167.302 45.6223 167.5 45.125 167.5C44.6277 167.5 44.1508 167.302 43.7992 166.951C43.4475 166.599 43.25 166.122 43.25 165.625V161.875Z" fill="#DEE4E7"/>
<path d="M53.6043 109.25H39.2785C39.1611 109.25 39.0447 109.273 38.9361 109.317C38.8275 109.362 38.7289 109.428 38.6457 109.511C38.5626 109.594 38.4967 109.692 38.4517 109.801C38.4068 109.909 38.3837 110.026 38.3838 110.143V114.125L46.6855 116.563L54.4998 114.125V110.143C54.4999 110.026 54.4768 109.909 54.4318 109.801C54.3868 109.692 54.3208 109.594 54.2376 109.511C54.1544 109.428 54.0556 109.362 53.9469 109.317C53.8383 109.272 53.7218 109.25 53.6043 109.25Z" fill="#41A5EE"/>
<path d="M54.4998 114.125H38.3838V119L46.6855 120.463L54.4998 119V114.125Z" fill="#2B7CD3"/>
<path d="M38.3838 119V123.875L46.1973 124.85L54.4998 123.875V119H38.3838Z" fill="#185ABD"/>
<path d="M39.2785 128.75H53.6035C53.7211 128.75 53.8376 128.728 53.9464 128.683C54.0552 128.638 54.154 128.573 54.2373 128.49C54.3206 128.407 54.3867 128.308 54.4317 128.199C54.4768 128.091 54.4999 127.974 54.4998 127.857V123.875H38.3838V127.857C38.3837 127.974 38.4068 128.091 38.4517 128.199C38.4967 128.308 38.5626 128.406 38.6457 128.489C38.7289 128.572 38.8275 128.638 38.9361 128.683C39.0447 128.727 39.1611 128.75 39.2785 128.75Z" fill="#103F91"/>
<path opacity="0.1" d="M44.3253 113.15H38.3838V125.338H44.3253C44.562 125.337 44.7888 125.242 44.9564 125.075C45.124 124.908 45.219 124.681 45.2208 124.445V114.044C45.219 113.807 45.124 113.58 44.9564 113.413C44.7888 113.246 44.562 113.152 44.3253 113.15Z" fill="black"/>
<path opacity="0.2" d="M43.837 113.638H38.3838V125.825H43.837C44.0738 125.824 44.3005 125.73 44.4682 125.562C44.6358 125.395 44.7308 125.169 44.7325 124.932V114.531C44.7308 114.294 44.6358 114.068 44.4682 113.9C44.3005 113.733 44.0738 113.639 43.837 113.638Z" fill="black"/>
<path opacity="0.2" d="M43.837 113.638H38.3838V124.85H43.837C44.0738 124.849 44.3005 124.755 44.4682 124.587C44.6358 124.42 44.7308 124.194 44.7325 123.957V114.531C44.7308 114.294 44.6358 114.068 44.4682 113.9C44.3005 113.733 44.0738 113.639 43.837 113.638Z" fill="black"/>
<path opacity="0.2" d="M43.3488 113.638H38.3838V124.85H43.3488C43.5855 124.849 43.8123 124.755 43.9799 124.587C44.1475 124.42 44.2425 124.194 44.2443 123.957V114.531C44.2425 114.294 44.1475 114.068 43.9799 113.9C43.8123 113.733 43.5855 113.639 43.3488 113.638Z" fill="black"/>
<path d="M34.3955 113.638H43.349C43.5862 113.638 43.8137 113.731 43.9816 113.899C44.1496 114.066 44.2441 114.294 44.2445 114.531V123.469C44.2441 123.707 44.1496 123.934 43.9816 124.101C43.8137 124.269 43.5862 124.363 43.349 124.363H34.3955C34.278 124.363 34.1615 124.34 34.0529 124.296C33.9442 124.251 33.8454 124.185 33.7622 124.102C33.679 124.019 33.613 123.92 33.568 123.812C33.523 123.703 33.4999 123.587 33.5 123.469V114.531C33.4999 114.413 33.523 114.297 33.568 114.188C33.613 114.08 33.679 113.981 33.7622 113.898C33.8454 113.815 33.9442 113.75 34.0529 113.705C34.1615 113.66 34.278 113.637 34.3955 113.638Z" fill="url(#paint0_linear_6562_7993)"/>
<path d="M37.1751 120.491C37.1926 120.629 37.2041 120.749 37.2096 120.852H37.2306C37.2381 120.754 37.2543 120.637 37.2793 120.499C37.3168 120.293 37.3258 120.246 37.3461 120.15L38.2873 116.095H39.5053L40.4803 120.09C40.5366 120.337 40.5772 120.587 40.6018 120.84H40.6183C40.637 120.594 40.6709 120.35 40.7196 120.108L41.4988 116.09H42.6066L41.2386 121.901H39.9433L39.0156 118.056C38.9886 117.945 38.9581 117.801 38.9241 117.623C38.8901 117.445 38.8691 117.315 38.8611 117.233H38.8453C38.8348 117.327 38.8138 117.468 38.7823 117.654C38.7508 117.84 38.7258 117.978 38.7073 118.068L37.8351 121.903H36.5181L35.1426 116.095H36.2676L37.1158 120.159C37.1406 120.268 37.1603 120.379 37.1751 120.491Z" fill="white"/>
</g>
</g>
<defs>
<filter id="filter0_d_6562_7993" x="120.846" y="14.6341" width="459.309" height="305.309" filterUnits="userSpaceOnUse" color-interpolation-filters="sRGB">
<feFlood flood-opacity="0" result="BackgroundImageFix"/>
<feColorMatrix in="SourceAlpha" type="matrix" values="0 0 0 0 0 0 0 0 0 0 0 0 0 0 0 0 0 0 127 0" result="hardAlpha"/>
<feOffset dy="3.78862"/>
<feGaussianBlur stdDeviation="7.57724"/>
<feComposite in2="hardAlpha" operator="out"/>
<feColorMatrix type="matrix" values="0 0 0 0 0.133333 0 0 0 0 0.172549 0 0 0 0 0.192157 0 0 0 0.12 0"/>
<feBlend mode="normal" in2="BackgroundImageFix" result="effect1_dropShadow_6562_7993"/>
<feBlend mode="normal" in="SourceGraphic" in2="effect1_dropShadow_6562_7993" result="shape"/>
</filter>
<filter id="filter1_d_6562_7993" x="6" y="86" width="247" height="306" filterUnits="userSpaceOnUse" color-interpolation-filters="sRGB">
<feFlood flood-opacity="0" result="BackgroundImageFix"/>
<feColorMatrix in="SourceAlpha" type="matrix" values="0 0 0 0 0 0 0 0 0 0 0 0 0 0 0 0 0 0 127 0" result="hardAlpha"/>
<feOffset dx="2" dy="4"/>
<feGaussianBlur stdDeviation="10"/>
<feComposite in2="hardAlpha" operator="out"/>
<feColorMatrix type="matrix" values="0 0 0 0 0.133333 0 0 0 0 0.172549 0 0 0 0 0.192157 0 0 0 0.14 0"/>
<feBlend mode="normal" in2="BackgroundImageFix" result="effect1_dropShadow_6562_7993"/>
<feBlend mode="normal" in="SourceGraphic" in2="effect1_dropShadow_6562_7993" result="shape"/>
</filter>
<linearGradient id="paint0_linear_6562_7993" x1="35.3705" y1="112.936" x2="42.374" y2="125.065" gradientUnits="userSpaceOnUse">
<stop stop-color="#2368C4"/>
<stop offset="0.5" stop-color="#1A5DBE"/>
<stop offset="1" stop-color="#1146AC"/>
</linearGradient>
<clipPath id="clip0_6562_7993">
<rect width="556" height="396" fill="white"/>
</clipPath>
<clipPath id="clip1_6562_7993">
<rect x="136" y="26" width="429" height="275" rx="11.3659" fill="white"/>
</clipPath>
</defs>
</svg>
